<svg xmlns="http://www.w3.org/2000/svg" height="16" width="16" style=""><rect id="backgroundrect" width="100%" height="100%" x="0" y="0" fill="none" stroke="none"/><g class="currentLayer" style=""><title>Layer 1</title><path d="m2 1a1.0001 1.0001 0 0 0 -1 1v12a1.0001 1.0001 0 0 0 1 1h12a1.0001 1.0001 0 0 0 1-1v-12a1.0001 1.0001 0 0 0 -1-1zm1 2h10v10h-10zm1 1v2h2v-2zm3 0v2h2v-2zm3 0v2h2v-2zm-6 3v2h2v-2zm3 0v2h2v-2zm3 0v2h2v-2zm-6 3v2h2v-2zm3 0v2h2v-2z" fill="#5ebcbc" fill-rule="evenodd" id="svg_1" class="" fill-opacity="1"/></g></svg>